# xmcd
#
# Track frame offsets: 
#        182
#        17120
#        34220
#        35777
#        39140
#        48680
#        80445
#        98682
#        107182
#        120420
#        140357
#        150632
#        162545
#
# Disc length: 2382 seconds
#
# Revision: 1
# Processed by: cddbd v1.5.2PL0 Copyright (c) Steve Scherf et al.
# Submitted via: ExactAudioCopyFreeDBPlugin 1.0
#
DISCID=a5094c0d
DTITLE=Adriano Celentano - Yuppi Du
DYEAR=1975
DGENRE=Classic Pop
TTITLE0=L'Affondamento
TTITLE1=La Messa
TTITLE2=A Chi Stai Pensando?
TTITLE3=Va Chi C'è
TTITLE4=La Ballata
TTITLE5=La Passarella
TTITLE6=Such A Cold Night To-Night
TTITLE7=La Violenza
TTITLE8=Do Dap
TTITLE9=Yuppi Du
TTITLE10=Il Castagnaro
TTITLE11=Il Finale
TTITLE12=Yuppi Du
EXTD=
EXTT0=
EXTT1=
EXTT2=
EXTT3=
EXTT4=
EXTT5=
EXTT6=
EXTT7=
EXTT8=
EXTT9=
EXTT10=
EXTT11=
EXTT12=
PLAYORDER=
